<svg xmlns="http://www.w3.org/2000/svg" viewBox="0 0 508.846 508.846" fill="red"><path fill="green" d="M53.28 152.274v52.599c2.542 3.182 16.777 16.859 71.781 12.352A954.904 954.904 0 0 0 85.152 74.267c-11.758 8.714-31.872 30.528-31.872 78.007z"/><path d="M300.137 156.526l18.286 12.187 18.286-12.187v-40.832l-36.572.009z"/><path fill="#00f" d="M254.423 78.473c39.131-14.729 57.39-55.771 62.665-70.034L308.649 0a107.88 107.88 0 0 1-54.226 15.131A108.318 108.318 0 0 1 200.215.091l-8.439 8.366c5.339 14.318 23.707 55.342 62.647 70.016z"/><path fill="green" d="M423.694 74.277a954.573 954.573 0 0 0-39.909 142.912c54.153 4.443 68.791-8.768 71.781-12.535v-52.379c0-47.48-20.115-69.294-31.872-77.998z"/><path d="M354.994 316.846c0-103.314 39.936-217.984 52.114-250.514a271.082 271.082 0 0 1-75.611-44.544c-8.841 20.955-30.775 60.718-74.176 75.182-1.847.61-3.84.61-5.687 0-43.401-14.464-65.335-54.226-74.176-75.182a271.1 271.1 0 0 1-75.721 44.544c12.178 32.53 52.114 147.2 52.114 250.514a843.64 843.64 0 0 1-14.994 169.929 9.052 9.052 0 0 0 6.226 10.597c17.435 5.23 50.56 11.474 109.339 11.474s91.904-6.245 109.349-11.474a9.052 9.052 0 0 0 6.217-10.597 843.713 843.713 0 0 1-14.994-169.929zM135.566 88.274a9.144 9.144 0 0 1-2.889-17.82 115.39 115.39 0 0 0 32.997-16.073 9.144 9.144 0 0 1 12.928 12.928c-10.368 10.368-37.129 19.493-40.146 20.498a9.105 9.105 0 0 1-2.89.467zm27.236 65.737a5.274 5.274 0 0 1-.539 1.737 7.304 7.304 0 0 1-.823 1.646c-.338.479-.704.937-1.097 1.371a9.27 9.27 0 0 1-12.983 0c-.393-.434-.76-.892-1.097-1.371a16.408 16.408 0 0 1-.914-1.646 10.4 10.4 0 0 1-.448-1.737 5.624 5.624 0 0 1-.192-1.737 9.207 9.207 0 0 1 2.651-6.491 9.145 9.145 0 0 1 15.635 6.491 10.229 10.229 0 0 1-.193 1.737zm27.199 1.168a9.145 9.145 0 0 1-4.634 5.324v-.091a9.144 9.144 0 0 1-12.27-4.096l-9.143-18.286a9.147 9.147 0 0 1 16.366-8.174l9.143 18.286a9.141 9.141 0 0 1 .538 7.037zm27.428 0a9.145 9.145 0 0 1-4.634 5.324v-.091a9.144 9.144 0 0 1-12.27-4.096l-18.286-36.571a9.147 9.147 0 0 1 16.366-8.174l18.286 36.571a9.137 9.137 0 0 1 .538 7.037zM330.245 54.382v-.027a9.143 9.143 0 0 1 12.928 0 115.131 115.131 0 0 0 32.997 16.073 9.155 9.155 0 0 1-5.778 17.372c-3.017-1.006-29.778-10.13-40.146-20.498a9.142 9.142 0 0 1-.001-12.92zm16.603 117.357v-.027l-18.286 12.187a18.232 18.232 0 0 1-20.27 0l-18.286-12.197a18.284 18.284 0 0 1-8.155-15.177v-40.823c0-10.099 8.187-18.286 18.286-18.286h36.571c10.099 0 18.286 8.187 18.286 18.286v40.823a18.285 18.285 0 0 1-8.146 15.214z"/></svg>